<svg width="24" height="23" viewBox="0 0 24 23" fill="none" xmlns="http://www.w3.org/2000/svg">
<path d="M21.7909 17.06L16.2409 11.51L17.8109 9.93996L14.0609 6.18996L12.4909 7.75996L6.94094 2.20996L2.21094 6.93996L7.76094 12.49L3.00094 17.25V21H6.75094L11.5109 16.24L17.0609 21.79L21.7909 17.06ZM9.18094 11.07L5.04094 6.93996L6.94094 5.03996L8.21094 6.30996L7.02094 7.49996L8.43094 8.90996L9.62094 7.71996L11.0709 9.16996L9.18094 11.07ZM12.9309 14.82L14.8309 12.92L16.2809 14.37L15.0909 15.56L16.5009 16.97L17.6909 15.78L18.9609 17.05L17.0609 18.95L12.9309 14.82ZM15.1339 5.12296L17.6719 2.58396L21.4199 6.33196L18.8819 8.87096L15.1339 5.12296Z" fill="#F9995D"/>
</svg>
