<svg width="132" height="22" viewBox="0 0 132 22" fill="none" xmlns="http://www.w3.org/2000/svg">
<g clip-path="url(#clip0_1136_179)">
<path d="M21.0969 8.4128C21.0392 8.24299 20.9331 8.09378 20.7916 7.98359C20.6501 7.8734 20.4795 7.80706 20.3007 7.79275L15.0716 7.37724L12.8087 2.36823C12.7367 2.2069 12.6195 2.06987 12.4712 1.97369C12.323 1.8775 12.1501 1.82627 11.9734 1.82617C11.7968 1.82608 11.6238 1.87712 11.4755 1.97314C11.3272 2.06916 11.2098 2.20606 11.1375 2.36731L8.87473 7.37724L3.64558 7.79275C3.46989 7.80667 3.30193 7.87091 3.16179 7.97778C3.02165 8.08466 2.91527 8.22965 2.85537 8.3954C2.79548 8.56115 2.7846 8.74065 2.82405 8.91242C2.8635 9.08419 2.9516 9.24096 3.07781 9.36397L6.94212 13.1311L5.57544 19.049C5.53394 19.2282 5.54724 19.4157 5.61361 19.5871C5.67999 19.7586 5.79637 19.9062 5.94765 20.0107C6.09894 20.1152 6.27815 20.1719 6.46202 20.1733C6.6459 20.1747 6.82595 20.1208 6.97881 20.0186L11.9731 16.689L16.9675 20.0186C17.1237 20.1223 17.308 20.1757 17.4955 20.1716C17.683 20.1675 17.8647 20.106 18.0162 19.9956C18.1678 19.8851 18.2819 19.7308 18.3431 19.5536C18.4044 19.3763 18.4099 19.1846 18.3589 19.0041L16.6813 13.1338L20.8419 9.38966C21.1143 9.14384 21.2143 8.76043 21.0969 8.4128V8.4128Z" fill="#F3CD03"/>
<path d="M48.1115 8.4128C48.0539 8.24299 47.9478 8.09378 47.8063 7.98359C47.6648 7.8734 47.4941 7.80706 47.3154 7.79275L42.0862 7.37724L39.8234 2.36823C39.7513 2.2069 39.6341 2.06987 39.4859 1.97369C39.3377 1.8775 39.1648 1.82627 38.9881 1.82617C38.8114 1.82608 38.6385 1.87712 38.4901 1.97314C38.3418 2.06916 38.2244 2.20606 38.1522 2.36731L35.8894 7.37724L30.6602 7.79275C30.4845 7.80667 30.3166 7.87091 30.1764 7.97778C30.0363 8.08466 29.9299 8.22965 29.87 8.3954C29.8101 8.56115 29.7993 8.74065 29.8387 8.91242C29.8781 9.08419 29.9662 9.24096 30.0925 9.36397L33.9568 13.1311L32.5901 19.049C32.5486 19.2282 32.5619 19.4157 32.6283 19.5871C32.6946 19.7586 32.811 19.9062 32.9623 20.0107C33.1136 20.1152 33.2928 20.1719 33.4767 20.1733C33.6605 20.1747 33.8406 20.1208 33.9935 20.0186L38.9878 16.689L43.9821 20.0186C44.1384 20.1223 44.3226 20.1757 44.5101 20.1716C44.6976 20.1675 44.8794 20.106 45.0309 19.9956C45.1824 19.8851 45.2965 19.7308 45.3578 19.5536C45.419 19.3763 45.4246 19.1846 45.3736 19.0041L43.696 13.1338L47.8565 9.38966C48.129 9.14384 48.2289 8.76043 48.1115 8.4128V8.4128Z" fill="#F3CD03"/>
<path d="M75.1223 8.4128C75.0646 8.24299 74.9585 8.09378 74.817 7.98359C74.6755 7.8734 74.5049 7.80706 74.3261 7.79275L69.097 7.37724L66.8341 2.36823C66.7621 2.2069 66.6449 2.06987 66.4966 1.97369C66.3484 1.8775 66.1755 1.82627 65.9988 1.82617C65.8221 1.82608 65.6492 1.87712 65.5009 1.97314C65.3525 2.06916 65.2352 2.20606 65.1629 2.36731L62.9001 7.37724L57.671 7.79275C57.4953 7.80667 57.3273 7.87091 57.1872 7.97778C57.047 8.08466 56.9407 8.22965 56.8808 8.3954C56.8209 8.56115 56.81 8.74065 56.8494 8.91242C56.8889 9.08419 56.977 9.24096 57.1032 9.36397L60.9675 13.1311L59.6008 19.049C59.5593 19.2282 59.5726 19.4157 59.639 19.5871C59.7054 19.7586 59.8218 19.9062 59.973 20.0107C60.1243 20.1152 60.3035 20.1719 60.4874 20.1733C60.6713 20.1747 60.8513 20.1208 61.0042 20.0186L65.9985 16.689L70.9929 20.0186C71.1491 20.1223 71.3334 20.1757 71.5209 20.1716C71.7084 20.1675 71.8901 20.106 72.0416 19.9956C72.1932 19.8851 72.3073 19.7308 72.3685 19.5536C72.4298 19.3763 72.4353 19.1846 72.3843 19.0041L70.7067 13.1338L74.8673 9.38966C75.1397 9.14384 75.2397 8.76043 75.1223 8.4128V8.4128Z" fill="#F3CD03"/>
<path d="M102.137 8.4128C102.079 8.24299 101.973 8.09378 101.832 7.98359C101.69 7.8734 101.52 7.80706 101.341 7.79275L96.1116 7.37724L93.8488 2.36823C93.7767 2.2069 93.6595 2.06987 93.5113 1.97369C93.3631 1.8775 93.1902 1.82627 93.0135 1.82617C92.8368 1.82608 92.6638 1.87712 92.5155 1.97314C92.3672 2.06916 92.2498 2.20606 92.1776 2.36731L89.9148 7.37724L84.6856 7.79275C84.5099 7.80667 84.342 7.87091 84.2018 7.97778C84.0617 8.08466 83.9553 8.22965 83.8954 8.3954C83.8355 8.56115 83.8246 8.74065 83.8641 8.91242C83.9035 9.08419 83.9916 9.24096 84.1178 9.36397L87.9822 13.1311L86.6155 19.049C86.574 19.2282 86.5873 19.4157 86.6537 19.5871C86.72 19.7586 86.8364 19.9062 86.9877 20.0107C87.139 20.1152 87.3182 20.1719 87.5021 20.1733C87.6859 20.1747 87.866 20.1208 88.0188 20.0186L93.0132 16.689L98.0075 20.0186C98.1638 20.1223 98.348 20.1757 98.5355 20.1716C98.723 20.1675 98.9047 20.106 99.0563 19.9956C99.2078 19.8851 99.3219 19.7308 99.3832 19.5536C99.4444 19.3763 99.4499 19.1846 99.399 19.0041L97.7213 13.1338L101.882 9.38966C102.154 9.14384 102.254 8.76043 102.137 8.4128V8.4128Z" fill="#F3CD03"/>
<path d="M114.998 13.1306L113.631 19.0486C113.589 19.2278 113.601 19.4156 113.667 19.5875C113.734 19.7593 113.85 19.9073 114.001 20.012C114.153 20.1167 114.332 20.1733 114.516 20.1744C114.701 20.1755 114.881 20.121 115.033 20.0181L120.028 16.6885L125.022 20.0181C125.178 20.1218 125.363 20.1752 125.55 20.1711C125.738 20.167 125.919 20.1056 126.071 19.9951C126.222 19.8846 126.337 19.7304 126.398 19.5531C126.459 19.3759 126.465 19.1841 126.414 19.0036L124.736 13.1333L128.897 9.3892C129.03 9.26921 129.125 9.1128 129.17 8.9393C129.216 8.76581 129.209 8.58284 129.151 8.41302C129.094 8.24321 128.988 8.09399 128.846 7.98383C128.705 7.87367 128.534 7.8074 128.355 7.79321L123.126 7.37678L120.863 2.36777C120.791 2.20648 120.674 2.06952 120.526 1.97341C120.377 1.87731 120.205 1.82617 120.028 1.82617C119.851 1.82617 119.678 1.87731 119.53 1.97341C119.382 2.06952 119.264 2.20648 119.192 2.36777L116.929 7.37678L111.7 7.79229C111.525 7.80621 111.357 7.87045 111.216 7.97733C111.076 8.0842 110.97 8.22919 110.91 8.39494C110.85 8.56069 110.839 8.74019 110.879 8.91196C110.918 9.08373 111.006 9.2405 111.132 9.36351L114.998 13.1306V13.1306ZM117.615 9.16264C117.778 9.14974 117.936 9.09304 118.07 8.99847C118.204 8.9039 118.31 8.77495 118.378 8.62514L120.028 4.97363L121.678 8.62514C121.745 8.77495 121.852 8.9039 121.986 8.99847C122.12 9.09304 122.277 9.14974 122.441 9.16264L126.084 9.45157L123.084 12.1519C122.824 12.3867 122.72 12.7481 122.815 13.0856L123.965 17.1077L120.538 14.8229C120.387 14.7219 120.21 14.668 120.029 14.668C119.848 14.668 119.671 14.7219 119.521 14.8229L115.94 17.2105L116.903 13.0407C116.938 12.8873 116.933 12.7275 116.889 12.5765C116.845 12.4255 116.762 12.2884 116.65 12.1785L113.863 9.46166L117.615 9.16264V9.16264Z" fill="#F3CD03"/>
</g>
<defs>
<clipPath id="clip0_1136_179">
<rect width="130.068" height="22.0136" fill="white" transform="translate(0.96582 -0.00683594)"/>
</clipPath>
</defs>
</svg>
