<svg width="131" height="22" viewBox="0 0 131 22" fill="none" xmlns="http://www.w3.org/2000/svg">
<g clip-path="url(#clip0_1136_158)">
<path d="M20.5969 8.4128C20.5392 8.24299 20.4331 8.09378 20.2916 7.98359C20.1501 7.8734 19.9795 7.80706 19.8007 7.79275L14.5716 7.37724L12.3087 2.36823C12.2367 2.2069 12.1195 2.06987 11.9712 1.97369C11.823 1.8775 11.6501 1.82627 11.4734 1.82617C11.2968 1.82608 11.1238 1.87712 10.9755 1.97314C10.8272 2.06916 10.7098 2.20606 10.6375 2.36731L8.37473 7.37724L3.14558 7.79275C2.96989 7.80667 2.80193 7.87091 2.66179 7.97778C2.52165 8.08466 2.41527 8.22965 2.35537 8.3954C2.29548 8.56115 2.2846 8.74065 2.32405 8.91242C2.3635 9.08419 2.4516 9.24096 2.57781 9.36397L6.44212 13.1311L5.07544 19.049C5.03394 19.2282 5.04724 19.4157 5.11361 19.5871C5.17999 19.7586 5.29637 19.9062 5.44765 20.0107C5.59894 20.1152 5.77815 20.1719 5.96202 20.1733C6.1459 20.1747 6.32595 20.1208 6.47881 20.0186L11.4731 16.689L16.4675 20.0186C16.6237 20.1223 16.808 20.1757 16.9955 20.1716C17.183 20.1675 17.3647 20.106 17.5162 19.9956C17.6678 19.8851 17.7819 19.7308 17.8431 19.5536C17.9044 19.3763 17.9099 19.1846 17.8589 19.0041L16.1813 13.1338L20.3419 9.38966C20.6143 9.14384 20.7143 8.76043 20.5969 8.4128V8.4128Z" fill="#F3CD03"/>
<path d="M47.6115 8.4128C47.5539 8.24299 47.4478 8.09378 47.3063 7.98359C47.1648 7.8734 46.9941 7.80706 46.8154 7.79275L41.5862 7.37724L39.3234 2.36823C39.2513 2.2069 39.1341 2.06987 38.9859 1.97369C38.8377 1.8775 38.6648 1.82627 38.4881 1.82617C38.3114 1.82608 38.1385 1.87712 37.9901 1.97314C37.8418 2.06916 37.7244 2.20606 37.6522 2.36731L35.3894 7.37724L30.1602 7.79275C29.9845 7.80667 29.8166 7.87091 29.6764 7.97778C29.5363 8.08466 29.4299 8.22965 29.37 8.3954C29.3101 8.56115 29.2993 8.74065 29.3387 8.91242C29.3781 9.08419 29.4662 9.24096 29.5925 9.36397L33.4568 13.1311L32.0901 19.049C32.0486 19.2282 32.0619 19.4157 32.1283 19.5871C32.1946 19.7586 32.311 19.9062 32.4623 20.0107C32.6136 20.1152 32.7928 20.1719 32.9767 20.1733C33.1605 20.1747 33.3406 20.1208 33.4935 20.0186L38.4878 16.689L43.4821 20.0186C43.6384 20.1223 43.8226 20.1757 44.0101 20.1716C44.1976 20.1675 44.3794 20.106 44.5309 19.9956C44.6824 19.8851 44.7965 19.7308 44.8578 19.5536C44.919 19.3763 44.9246 19.1846 44.8736 19.0041L43.196 13.1338L47.3565 9.38966C47.629 9.14384 47.7289 8.76043 47.6115 8.4128V8.4128Z" fill="#F3CD03"/>
<path d="M74.6223 8.4128C74.5646 8.24299 74.4585 8.09378 74.317 7.98359C74.1755 7.8734 74.0049 7.80706 73.8261 7.79275L68.597 7.37724L66.3341 2.36823C66.2621 2.2069 66.1449 2.06987 65.9966 1.97369C65.8484 1.8775 65.6755 1.82627 65.4988 1.82617C65.3221 1.82608 65.1492 1.87712 65.0009 1.97314C64.8525 2.06916 64.7352 2.20606 64.6629 2.36731L62.4001 7.37724L57.171 7.79275C56.9953 7.80667 56.8273 7.87091 56.6872 7.97778C56.547 8.08466 56.4407 8.22965 56.3808 8.3954C56.3209 8.56115 56.31 8.74065 56.3494 8.91242C56.3889 9.08419 56.477 9.24096 56.6032 9.36397L60.4675 13.1311L59.1008 19.049C59.0593 19.2282 59.0726 19.4157 59.139 19.5871C59.2054 19.7586 59.3218 19.9062 59.473 20.0107C59.6243 20.1152 59.8035 20.1719 59.9874 20.1733C60.1713 20.1747 60.3513 20.1208 60.5042 20.0186L65.4985 16.689L70.4929 20.0186C70.6491 20.1223 70.8334 20.1757 71.0209 20.1716C71.2084 20.1675 71.3901 20.106 71.5416 19.9956C71.6932 19.8851 71.8073 19.7308 71.8685 19.5536C71.9298 19.3763 71.9353 19.1846 71.8843 19.0041L70.2067 13.1338L74.3673 9.38966C74.6397 9.14384 74.7397 8.76043 74.6223 8.4128V8.4128Z" fill="#F3CD03"/>
<path d="M101.637 8.4128C101.579 8.24299 101.473 8.09378 101.332 7.98359C101.19 7.8734 101.02 7.80706 100.841 7.79275L95.6116 7.37724L93.3488 2.36823C93.2767 2.2069 93.1595 2.06987 93.0113 1.97369C92.8631 1.8775 92.6902 1.82627 92.5135 1.82617C92.3368 1.82608 92.1638 1.87712 92.0155 1.97314C91.8672 2.06916 91.7498 2.20606 91.6776 2.36731L89.4148 7.37724L84.1856 7.79275C84.0099 7.80667 83.842 7.87091 83.7018 7.97778C83.5617 8.08466 83.4553 8.22965 83.3954 8.3954C83.3355 8.56115 83.3246 8.74065 83.3641 8.91242C83.4035 9.08419 83.4916 9.24096 83.6178 9.36397L87.4822 13.1311L86.1155 19.049C86.074 19.2282 86.0873 19.4157 86.1537 19.5871C86.22 19.7586 86.3364 19.9062 86.4877 20.0107C86.639 20.1152 86.8182 20.1719 87.0021 20.1733C87.1859 20.1747 87.366 20.1208 87.5188 20.0186L92.5132 16.689L97.5075 20.0186C97.6638 20.1223 97.848 20.1757 98.0355 20.1716C98.223 20.1675 98.4047 20.106 98.5563 19.9956C98.7078 19.8851 98.8219 19.7308 98.8832 19.5536C98.9444 19.3763 98.9499 19.1846 98.899 19.0041L97.2213 13.1338L101.382 9.38966C101.654 9.14384 101.754 8.76043 101.637 8.4128V8.4128Z" fill="#F3CD03"/>
<path d="M114.498 13.1306L113.131 19.0486C113.089 19.2278 113.101 19.4156 113.167 19.5875C113.234 19.7593 113.35 19.9073 113.501 20.012C113.653 20.1167 113.832 20.1733 114.016 20.1744C114.201 20.1755 114.381 20.121 114.533 20.0181L119.528 16.6885L124.522 20.0181C124.678 20.1218 124.863 20.1752 125.05 20.1711C125.238 20.167 125.419 20.1056 125.571 19.9951C125.722 19.8846 125.837 19.7304 125.898 19.5531C125.959 19.3759 125.965 19.1841 125.914 19.0036L124.236 13.1333L128.397 9.3892C128.53 9.26921 128.625 9.1128 128.67 8.9393C128.716 8.76581 128.709 8.58284 128.651 8.41302C128.594 8.24321 128.488 8.09399 128.346 7.98383C128.205 7.87367 128.034 7.8074 127.855 7.79321L122.626 7.37678L120.363 2.36777C120.291 2.20648 120.174 2.06952 120.026 1.97341C119.877 1.87731 119.705 1.82617 119.528 1.82617C119.351 1.82617 119.178 1.87731 119.03 1.97341C118.882 2.06952 118.764 2.20648 118.692 2.36777L116.429 7.37678L111.2 7.79229C111.025 7.80621 110.857 7.87045 110.716 7.97733C110.576 8.0842 110.47 8.22919 110.41 8.39494C110.35 8.56069 110.339 8.74019 110.379 8.91196C110.418 9.08373 110.506 9.2405 110.632 9.36351L114.498 13.1306V13.1306ZM117.115 9.16264C117.278 9.14974 117.436 9.09304 117.57 8.99847C117.704 8.9039 117.81 8.77495 117.878 8.62514L119.528 4.97363L121.178 8.62514C121.245 8.77495 121.352 8.9039 121.486 8.99847C121.62 9.09304 121.777 9.14974 121.941 9.16264L125.584 9.45157L122.584 12.1519C122.324 12.3867 122.22 12.7481 122.315 13.0856L123.465 17.1077L120.038 14.8229C119.887 14.7219 119.71 14.668 119.529 14.668C119.348 14.668 119.171 14.7219 119.021 14.8229L115.44 17.2105L116.403 13.0407C116.438 12.8873 116.433 12.7275 116.389 12.5765C116.345 12.4255 116.262 12.2884 116.15 12.1785L113.363 9.46166L117.115 9.16264V9.16264Z" fill="#F3CD03"/>
</g>
<defs>
<clipPath id="clip0_1136_158">
<rect width="130.068" height="22.0136" fill="white" transform="translate(0.46582 -0.00683594)"/>
</clipPath>
</defs>
</svg>
